<svg width="40" height="40" viewBox="0 0 40 40" fill="none" xmlns="http://www.w3.org/2000/svg">
<g clip-path="url(#clip0_78_145)">
<path d="M20 40C31.0457 40 40 31.0457 40 20C40 8.95431 31.0457 0 20 0C8.95431 0 0 8.95431 0 20C0 31.0457 8.95431 40 20 40Z" fill="#6359E0"/>
<path d="M20.0852 13.3503C22.4565 13.3503 24.8289 13.3071 27.198 13.3622C29.3069 13.4108 30.4399 14.3366 30.5464 16.374C30.6935 19.2001 30.7089 22.0434 30.5683 24.8684C30.4608 27.0301 29.3509 27.9472 27.1574 27.9656C22.5191 28.0056 17.8797 28.0142 13.2424 27.9678C10.6197 27.9418 9.6185 27.1467 9.44834 24.5778C9.26829 21.8598 9.31111 19.1115 9.49335 16.3913C9.63497 14.2729 10.6966 13.4162 12.8176 13.3633C15.2383 13.3038 17.6623 13.3503 20.0852 13.3503ZM17.861 23.3873C19.8426 22.3686 21.6254 21.4525 23.6202 20.4273C21.5914 19.3967 19.7943 18.4839 17.861 17.5019C17.861 19.5285 17.861 21.3013 17.861 23.3873Z" fill="white"/>
</g>
<defs>
<clipPath id="clip0_78_145">
<rect width="40" height="40" fill="white"/>
</clipPath>
</defs>
</svg>
