<svg width="40" height="40" viewBox="0 0 40 40" fill="none" xmlns="http://www.w3.org/2000/svg">
<g clip-path="url(#clip0_78_139)">
<path d="M40 19.9689C40 8.92294 31.0457 0.0242122 20 0.0929776C8.9543 0.161743 -1.35708e-06 9.17196 -8.74245e-07 20.2179C-3.91413e-07 31.2638 8.95431 40.1625 20 40.0938C31.0457 40.025 40 31.0148 40 19.9689Z" fill="#6359E0"/>
<path d="M20.3484 30.4494C18.7713 30.4494 17.1901 30.5208 15.6181 30.4343C12.6166 30.2685 10.4362 28.2618 10.313 25.3285C10.1716 21.9853 10.1757 18.627 10.313 15.2828C10.426 12.5394 12.3358 10.4724 15.084 10.3197C18.699 10.1177 22.3416 10.1237 25.9577 10.3156C28.6265 10.4573 30.5546 12.4972 30.6767 15.1702C30.8324 18.5597 30.8426 21.9652 30.693 25.3547C30.5648 28.2578 28.4403 30.2404 25.509 30.4223C23.7955 30.5278 22.0689 30.4414 20.3484 30.4414C20.3484 30.4444 20.3484 30.4474 20.3484 30.4494ZM20.5966 11.9918C20.5966 11.9938 20.5966 11.9948 20.5966 11.9968C19.0653 11.9968 17.532 11.9385 16.0048 12.0099C13.5557 12.1254 12.0997 13.5594 12.0448 15.9801C11.9786 18.9084 11.9685 21.8406 12.0509 24.7688C12.118 27.1484 13.5618 28.6376 15.8908 28.7039C18.9504 28.7914 22.016 28.7894 25.0755 28.6999C27.3455 28.6336 28.8503 27.2529 28.9297 25.0924C29.0437 21.9783 29.0467 18.8531 28.9328 15.739C28.8483 13.4137 27.3017 12.0742 24.9026 11.9998C23.4689 11.9556 22.0323 11.9918 20.5966 11.9918Z" fill="white"/>
<path d="M20.4953 15.0874C23.5091 15.0884 25.837 17.4026 25.8177 20.3781C25.7994 23.24 23.4124 25.5934 20.5218 25.5985C17.5843 25.6045 15.1628 23.1827 15.1882 20.2625C15.2136 17.3805 17.564 15.0864 20.4953 15.0874ZM20.5472 23.7334C22.4621 23.7153 24.0066 22.1437 23.9588 20.2635C23.912 18.4377 22.3837 16.9404 20.5411 16.9143C18.6506 16.8871 17.0756 18.4417 17.0705 20.3399C17.0644 22.2331 18.6211 23.7525 20.5472 23.7334Z" fill="white"/>
<path d="M26.3275 15.398C26.9338 15.1181 27.1956 14.4058 26.9122 13.8071C26.6289 13.2083 25.9077 12.9497 25.3014 13.2296C24.6951 13.5095 24.4333 14.2217 24.7167 14.8205C25.0001 15.4193 25.7213 15.6778 26.3275 15.398Z" fill="white"/>
</g>
<defs>
<clipPath id="clip0_78_139">
<rect width="40" height="40" fill="white"/>
</clipPath>
</defs>
</svg>
