<svg width="40" height="40" viewBox="0 0 40 40" fill="none" xmlns="http://www.w3.org/2000/svg">
<g clip-path="url(#clip0_78_136)">
<path d="M40 19.9689C40 8.92294 31.0457 0.0242084 20 0.0929737C8.9543 0.161739 -1.35708e-06 9.17196 -8.74245e-07 20.2179C-3.91413e-07 31.2638 8.95431 40.1625 20 40.0938C31.0457 40.025 40 31.0148 40 19.9689Z" fill="#6359E0"/>
<path d="M21.124 30.4758C19.5916 30.4758 18.2708 30.4758 16.8398 30.4758C16.8398 27.2701 16.8398 24.12 16.8398 20.8579C15.6253 20.8579 14.5181 20.8579 13.3335 20.8579C13.3335 19.5832 13.3335 18.4206 13.3335 17.1221C14.4253 17.1221 15.5287 17.1221 16.7326 17.1221C17.0186 14.5912 16.2147 11.8469 18.9848 10.1391C20.3829 9.27728 22.4854 9.06204 25.3337 9.48282C25.3337 9.97416 25.3337 10.4937 25.3337 11.0133C25.3337 11.547 25.3337 12.0798 25.3337 12.804C24.5617 12.804 23.8294 12.7811 23.0999 12.8093C21.7288 12.8614 21.2032 13.3077 21.1211 14.5383C21.0679 15.3305 21.1114 16.127 21.1114 17.0374C22.5028 17.0374 23.812 17.0374 25.2023 17.0374C25.0274 18.3244 24.87 19.4871 24.6931 20.79C23.5356 20.79 22.3916 20.79 21.1259 20.79C21.124 24.0777 21.124 27.2269 21.124 30.4758Z" fill="white"/>
</g>
<defs>
<clipPath id="clip0_78_136">
<rect width="40" height="40" fill="white"/>
</clipPath>
</defs>
</svg>
