<svg width="40" height="40" viewBox="0 0 40 40" fill="none" xmlns="http://www.w3.org/2000/svg">
<g clip-path="url(#clip0_78_148)">
<path d="M20 40C31.0457 40 40 31.0457 40 20C40 8.95431 31.0457 0 20 0C8.95431 0 0 8.95431 0 20C0 31.0457 8.95431 40 20 40Z" fill="#6359E0"/>
<path d="M21.2613 9.33301C22.4318 9.33301 23.4004 9.33301 24.4262 9.33301C24.816 12.2269 26.5974 13.6719 29.3323 14.1562C29.3323 15.3203 29.3323 16.4549 29.3323 17.9629C27.7227 17.389 26.2689 16.87 24.6814 16.3043C24.6814 18.025 24.7035 19.8158 24.6724 21.6057C24.6553 22.5928 24.6543 23.6011 24.4624 24.5617C23.8395 27.6795 20.5128 29.7747 17.1359 29.2526C14.1086 28.7856 11.7616 25.6403 12.0188 22.3974C12.2579 19.3793 15.1164 16.6848 18.1055 16.6767C18.4189 16.6757 18.7324 16.7683 19.076 16.8222C19.076 17.9212 19.076 18.9448 19.076 20.0204C18.5124 20.1221 17.9507 20.1689 17.4232 20.3297C16.09 20.7367 15.2952 21.9985 15.452 23.3742C15.6007 24.6838 16.6697 25.7065 17.9879 25.7991C19.5563 25.91 20.7429 25.1631 21.0815 23.7843C21.2081 23.2715 21.2322 22.724 21.2352 22.1918C21.2543 18.3923 21.2553 14.5927 21.2613 10.7932C21.2623 10.3434 21.2613 9.89368 21.2613 9.33301Z" fill="white"/>
</g>
<defs>
<clipPath id="clip0_78_148">
<rect width="40" height="40" fill="white"/>
</clipPath>
</defs>
</svg>
