<svg width="148" height="51" viewBox="0 0 148 51" fill="none" xmlns="http://www.w3.org/2000/svg">
<path d="M42.6445 26.6116C48.186 26.6116 52.6785 31.1034 52.6787 36.6448C52.6787 42.1864 48.1861 46.679 42.6445 46.679C37.103 46.679 32.6104 42.1864 32.6104 36.6448C32.6105 31.1034 37.1031 26.6116 42.6445 26.6116ZM21.5576 5.04523C24.463 0.326569 30.6435 -1.1432 35.3623 1.76203C40.081 4.66738 41.5516 10.8479 38.6465 15.5667C36.9667 18.2949 31.6472 20.7196 27.459 22.2816C24.8726 23.4525 23.2041 26.0311 23.2041 28.8792V31.0013L13.7969 25.9837L16.0068 24.9788C18.8621 23.6804 20.6953 20.8333 20.6953 17.6966V16.6097C20.209 12.3733 20.0739 7.45494 21.5576 5.04523Z" fill="#F95C1B"/>
<path d="M38.6461 15.5657C35.7407 20.2845 21.9496 23.4745 21.9496 23.4745C21.9496 23.4745 18.6522 9.76308 21.5576 5.04423C24.4631 0.325381 30.6437 -1.14469 35.3626 1.76073C40.0814 4.66615 41.5515 10.8468 38.6461 15.5657Z" fill="#F95C1B"/>
<path d="M5.40393 31.3314C8.3881 26.6619 22.2412 23.0767 22.2412 23.0767C22.2412 23.0767 25.2977 37.4686 22.3135 42.138C19.3293 46.8074 13.1248 48.1736 8.45538 45.1895C3.78594 42.2053 2.41976 36.0008 5.40393 31.3314Z" fill="#F95C1B"/>
<path d="M78.3752 10.1289C80.2209 10.1289 81.614 10.5376 82.5544 11.355C83.5036 12.1724 83.9782 13.4468 83.9782 15.1782V25H81.7766L81.1833 22.9302H81.0778C80.6647 23.4575 80.2385 23.8926 79.799 24.2354C79.3596 24.5781 78.8498 24.833 78.2697 25C77.6984 25.1758 76.9997 25.2637 76.1735 25.2637C75.3034 25.2637 74.5256 25.1055 73.84 24.7891C73.1545 24.4639 72.614 23.9717 72.2184 23.3125C71.8229 22.6533 71.6252 21.8184 71.6252 20.8076C71.6252 19.3047 72.1833 18.1753 73.2995 17.4194C74.4245 16.6636 76.1208 16.2461 78.3884 16.167L80.9196 16.0747V15.3101C80.9196 14.2993 80.6823 13.5786 80.2077 13.1479C79.7419 12.7173 79.0827 12.502 78.2302 12.502C77.5007 12.502 76.7932 12.6074 76.1076 12.8184C75.4221 13.0293 74.7541 13.2886 74.1037 13.5962L73.1017 11.4077C73.8137 11.0298 74.6223 10.7222 75.5275 10.4849C76.4416 10.2476 77.3908 10.1289 78.3752 10.1289ZM80.9064 18.0259L79.0212 18.0918C77.4743 18.1445 76.3889 18.4082 75.7648 18.8828C75.1408 19.3574 74.8288 20.0078 74.8288 20.834C74.8288 21.5547 75.0441 22.082 75.4748 22.416C75.9055 22.7412 76.4724 22.9038 77.1755 22.9038C78.2477 22.9038 79.1354 22.6006 79.8386 21.9941C80.5505 21.3789 80.9064 20.478 80.9064 19.2915V18.0259ZM93.7473 22.7588C94.1516 22.7588 94.5515 22.7236 94.947 22.6533C95.3425 22.5742 95.7028 22.4819 96.028 22.3765V24.7231C95.6852 24.8726 95.2414 25 94.6965 25.1055C94.1516 25.2109 93.5847 25.2637 92.9958 25.2637C92.1696 25.2637 91.4269 25.1274 90.7678 24.855C90.1086 24.5737 89.5856 24.0947 89.1989 23.418C88.8122 22.7412 88.6188 21.8052 88.6188 20.6099V12.7656H86.6281V11.3813L88.7639 10.2871L89.779 7.1626H91.7302V10.4058H95.9094V12.7656H91.7302V20.5703C91.7302 21.3086 91.9147 21.8579 92.2839 22.2183C92.653 22.5786 93.1408 22.7588 93.7473 22.7588ZM111.914 17.6699C111.914 18.8828 111.756 19.9595 111.44 20.8999C111.123 21.8403 110.662 22.6357 110.055 23.2861C109.449 23.9277 108.719 24.4199 107.867 24.7627C107.014 25.0967 106.052 25.2637 104.98 25.2637C103.978 25.2637 103.059 25.0967 102.224 24.7627C101.389 24.4199 100.664 23.9277 100.049 23.2861C99.4426 22.6357 98.9724 21.8403 98.6384 20.8999C98.3044 19.9595 98.1374 18.8828 98.1374 17.6699C98.1374 16.0615 98.4142 14.6992 98.968 13.583C99.5305 12.458 100.33 11.6011 101.367 11.0122C102.404 10.4233 103.639 10.1289 105.072 10.1289C106.417 10.1289 107.603 10.4233 108.632 11.0122C109.66 11.6011 110.464 12.458 111.044 13.583C111.624 14.708 111.914 16.0703 111.914 17.6699ZM101.328 17.6699C101.328 18.7334 101.455 19.6431 101.71 20.3989C101.974 21.1548 102.378 21.7349 102.923 22.1392C103.468 22.5347 104.171 22.7324 105.032 22.7324C105.894 22.7324 106.597 22.5347 107.142 22.1392C107.687 21.7349 108.087 21.1548 108.341 20.3989C108.596 19.6431 108.724 18.7334 108.724 17.6699C108.724 16.6064 108.596 15.7056 108.341 14.9673C108.087 14.2202 107.687 13.6533 107.142 13.2666C106.597 12.8711 105.889 12.6733 105.019 12.6733C103.736 12.6733 102.8 13.104 102.211 13.9653C101.622 14.8267 101.328 16.0615 101.328 17.6699ZM131.966 10.1289C133.601 10.1289 134.832 10.5508 135.658 11.3945C136.493 12.2383 136.91 13.5918 136.91 15.4551V25H133.812V16.0088C133.812 14.9014 133.597 14.0664 133.166 13.5039C132.736 12.9414 132.081 12.6602 131.202 12.6602C129.971 12.6602 129.084 13.0557 128.539 13.8467C128.003 14.6289 127.735 15.7671 127.735 17.2612V25H124.636V16.0088C124.636 15.2705 124.54 14.6553 124.346 14.1631C124.162 13.6621 123.876 13.2886 123.489 13.0425C123.103 12.7876 122.615 12.6602 122.026 12.6602C121.174 12.6602 120.492 12.8535 119.983 13.2402C119.482 13.627 119.121 14.1982 118.902 14.9541C118.682 15.7012 118.572 16.6196 118.572 17.7095V25H115.474V10.4058H117.886L118.321 12.3701H118.493C118.792 11.8604 119.161 11.4429 119.6 11.1177C120.049 10.7837 120.545 10.5376 121.09 10.3794C121.635 10.2124 122.202 10.1289 122.791 10.1289C123.881 10.1289 124.799 10.3223 125.546 10.709C126.293 11.0869 126.851 11.667 127.22 12.4492H127.458C127.915 11.6582 128.552 11.0737 129.369 10.6958C130.187 10.3179 131.052 10.1289 131.966 10.1289Z" fill="black"/>
</svg>
